HIERARCHY
ROOT Hips
{
  OFFSET 2.26061 22.2878 23.7974
  CHANNELS 6 Xposition Yposition Zposition Zrotation Xrotation Yrotation
  JOINT LeftUpLeg
  {
    OFFSET 8.64259 1.95398 -2.38835
    CHANNELS 3 Zrotation Xrotation Yrotation
    JOINT LeftLeg
    {
      OFFSET 43.7702 0 0
      CHANNELS 3 Zrotation Xrotation Yrotation
      JOINT LeftFoot
      {
        OFFSET 40.6238 0 0
        CHANNELS 3 Zrotation Xrotation Yrotation
        JOINT LeftToeBase
        {
          OFFSET 12.7242 0 0
          CHANNELS 3 Zrotation Xrotation Yrotation
          End Site
          {
            OFFSET 0 0 0
          }
        }
      }
    }
  }
  JOINT RightUpLeg
  {
    OFFSET -8.2249 1.95398 -2.59336
    CHANNELS 3 Zrotation Xrotation Yrotation
    JOINT RightLeg
    {
      OFFSET 43.5653 0 0
      CHANNELS 3 Zrotation Xrotation Yrotation
      JOINT RightFoot
      {
        OFFSET 40.6238 0 0
        CHANNELS 3 Zrotation Xrotation Yrotation
        JOINT RightToeBase
        {
          OFFSET 12.7242 0 0
          CHANNELS 3 Zrotation Xrotation Yrotation
          End Site
          {
            OFFSET 0 0 0
          }
        }
      }
    }
  }
  JOINT Spine
  {
    OFFSET 0.165834 0.87714 6.61349
    CHANNELS 3 Zrotation Xrotation Yrotation
    JOINT Spine1
    {
      OFFSET 7.38963 1.71661e-005 0
      CHANNELS 3 Zrotation Xrotation Yrotation
      JOINT Spine2
      {
        OFFSET 11.9445 1.14441e-005 0
        CHANNELS 3 Zrotation Xrotation Yrotation
        JOINT Spine3
        {
          OFFSET 14.7254 4.19617e-005 0
          CHANNELS 3 Zrotation Xrotation Yrotation
          JOINT Spine4
          {
            OFFSET 10.9679 0 0
            CHANNELS 3 Zrotation Xrotation Yrotation
            JOINT RightShoulder
            {
              OFFSET 2.46616 -1.6653 3.69651
              CHANNELS 3 Zrotation Xrotation Yrotation
              JOINT RightArm
              {
                OFFSET 13.0012 0 0
                CHANNELS 3 Zrotation Xrotation Yrotation
                JOINT RightForeArm
                {
                  OFFSET 28.7848 1.52588e-005 0
                  CHANNELS 3 Zrotation Xrotation Yrotation
                  JOINT RightHand
                  {
                    OFFSET 26.5688 1.52588e-005 0
                    CHANNELS 3 Zrotation Xrotation Yrotation
                    End Site
                    {
                      OFFSET 0 0 0
                    }
                  }
                }
              }
            }
            JOINT LeftShoulder
            {
              OFFSET 2.38034 -1.29275 -3.7523
              CHANNELS 3 Zrotation Xrotation Yrotation
              JOINT LeftArm
              {
                OFFSET 16.3182 6.10351e-005 0
                CHANNELS 3 Zrotation Xrotation Yrotation
                JOINT LeftForeArm
                {
                  OFFSET 27.0901 0 0
                  CHANNELS 3 Zrotation Xrotation Yrotation
                  JOINT LeftHand
                  {
                    OFFSET 24.5451 1.52588e-005 0
                    CHANNELS 3 Zrotation Xrotation Yrotation
                    End Site
                    {
                      OFFSET 0 0 0
                    }
                  }
                }
              }
            }
            JOINT Neck
            {
              OFFSET 5.0226 -0.0266342 0
              CHANNELS 3 Zrotation Xrotation Yrotation
              JOINT Head
              {
                OFFSET 6.69363 2.86102e-005 0
                CHANNELS 3 Zrotation Xrotation Yrotation
                End Site
                {
                  OFFSET 0 0 0
                }
              }
            }
          }
        }
      }
    }
  }
}
MOTION
Frames:	17
Frame Time:	0.0416667
-293.881 89.2994 -284.181 95.2325 -73.0129 90.4557 177.704 25.4679 73.0792 -33.0149 -59.1705 38.92 -33.3194 -59.4096 -122.322 -15.2382 -24.1681 -19.2542 161.76 17.0479 72.6235 146.689 74.246 163.639 15.5124 18.1425 28.4838 -18.5531 67.4157 -109.997 0.553625 8.96947 -89.2815 8.92493 1.42457 1.32515 -2.74585 1.4815 1.26116 -25.2789 0.960505 1.69196 -5.26623 0.96051 1.69197 87.8815 -61.988 -101.169 -2.07299 0.180849 -62.4568 -13.5492 -21.8057 -61.8657 24.2279 -3.03869 -14.6851 -83.1116 -61.9543 90.1353 -25.8043 16.8002 22.5367 59.2966 -0.0172122 -86.1103 -21.5389 -4.86205 23.3556 4.97019 14.7481 7.99669 13.3586 13.393 1.21174 
-291.064 92.6065 -280.747 91.7418 -73.1129 86.7395 -163.07 19.6238 94.9516 -83.7695 -51.6715 -23.0767 41.2945 -14.7315 -77.598 15.3525 -4.08745 -26.1607 144.971 14.07 69.8681 -87.4572 84.635 53.0464 20.9004 12.7939 20.5428 -55.9562 68.5583 -72.1384 1.71242 9.60961 -89.1618 7.63303 3.78323 1.4636 -4.03297 3.84396 1.29546 -26.5956 3.16844 2.53364 -6.58298 3.16845 2.53364 91.5068 -53.4814 -97.8123 8.11687 1.67136 -35.1583 -43.7991 -4.55076 -86.6702 41.2919 -10.6702 -23.3911 -100.873 -57.0823 65.2751 -27.8648 14.8507 26.4354 24.4763 3.03288 -75.9088 5.57778 1.70602 27.731 11.0796 10.5147 3.89364 13.0886 10.1143 4.47825 
-289.279 93.8383 -277.527 79.1406 -71.9151 72.3236 -156.35 20.7385 85.1292 -63.6678 -22.1446 -5.8678 51.5436 -1.0087 -34.1272 46.5668 13.3142 -6.03351 137.533 16.9323 69.0475 -37.6473 74.5324 9.47007 16.6276 7.86625 16.3558 -78.5134 57.4469 -45.4867 2.12577 9.5192 -88.5518 7.77474 4.87502 2.59114 -3.88917 4.98428 2.37372 -26.4544 3.87126 3.93701 -6.44173 3.87127 3.93702 94.6007 -46.9266 -94.2128 25.3074 2.02257 -7.31601 -103.066 24.7723 -79.1725 50.8804 -36.541 -58.9724 -101.328 -51.1949 62.5628 -32.9578 13.9549 33.9029 0.70777 -1.95265 -71.1375 32.6839 4.94934 11.2248 14.5384 7.98796 -3.55955 12.8893 9.96254 9.46753 
-286.539 92.8599 -272.923 67.7073 -67.0975 61.3182 -155.736 34.0762 80.6717 -56.4229 11.5312 -6.38418 53.7695 -1.74054 2.11271 44.44 14.1777 15.0843 163.787 8.38596 71.3759 -23.2108 74.8784 -2.06933 -0.9673 1.97738 15.8763 -105.088 -6.88256 -1.20657 2.12004 8.74354 -88.3264 9.31385 4.97841 2.94726 -2.35042 5.10323 2.72498 -24.9093 3.86317 4.30734 -4.89661 3.86316 4.30733 95.1274 -44.2806 -93.7648 30.0307 2.28659 1.43111 -132.461 25.3332 -61.1059 34.3018 -41.2013 -84.1651 -97.4002 -47.8594 67.0652 -38.3286 14.7826 41.3377 -4.17646 -3.41079 -71.9174 32.2374 1.61771 0.905717 12.8336 7.16767 -3.83069 13.7047 9.09857 8.2809 
-281.318 91.7616 -266.81 67.2876 -59.7682 65.2315 -162.525 45.6514 83.2814 -48.7044 16.0676 -5.76087 53.3293 -3.98678 1.0394 42.4915 12.4504 16.4846 175.197 -0.517498 83.2496 -20.4404 -6.38733 -10.832 -8.649 11.2008 25.7002 75.2285 8.64618 17.341 1.89444 8.17013 -88.8146 10.4965 4.3175 1.97203 -1.16852 4.4001 1.77984 -23.7331 3.52535 3.17915 -3.72049 3.52534 3.17916 95.2477 -42.4405 -93.8533 29.7782 0.696164 2.16505 -126.263 28.9577 -65.7408 45.4706 -45.8956 -76.318 -97.0667 -45.8366 66.8595 -41.6635 12.2743 46.1788 -1.26119 -2.97008 -73.8721 29.6846 1.31479 0.51907 12.0735 6.11846 -1.63072 12.6258 7.17893 6.01365 
-274.137 91.9012 -259.404 65.9952 -52.9361 68.5646 -169.671 50.6269 85.5381 -38.2759 20.0727 -4.09825 53.2995 -4.00726 3.03382 43.8837 13.5676 14.2006 177.67 4.25779 89.1089 -39.7349 -18.1194 -13.1097 13.9237 12.8602 18.0195 32.1063 -0.123532 -4.77877 1.58442 7.58968 -89.2845 11.6796 3.48692 1.05891 0.0130059 3.53016 0.904234 -22.5483 3.00741 2.05864 -2.53565 3.0074 2.05862 95.6019 -41.1756 -93.4464 28.9947 -4.42937 3.54908 -75.5753 32.3255 -101.176 75.3996 -32.3289 -25.964 -97.4007 -45.0692 66.0737 -42.8893 9.71412 48.6386 -0.707991 -2.90304 -76.5587 31.3905 1.91101 2.3023 11.3848 5.61354 1.63847 11.6928 5.52862 3.00437 
-266.753 92.3529 -251.616 66.0724 -52.6413 72.0099 -169.798 49.5366 87.7985 -33.6608 15.3366 -4.14714 54.7336 -3.18227 0.0511291 44.7225 14.6943 16.1307 179.205 5.50376 90.3673 -49.5429 -12.5794 -9.01424 33.0714 7.00358 7.80858 7.55534 1.78802 -10.9722 1.68766 7.38071 -89.5526 12.1098 3.56627 0.499053 0.44372 3.58479 0.3414 -22.1248 3.25127 1.54886 -2.11212 3.25127 1.54886 95.5444 -41.399 -93.5089 28.6993 -11.8393 5.55205 -23.095 -0.891333 -118.793 8.65313 3.99321 10.4657 -96.1375 -44.9354 67.9711 -42.0993 8.24527 47.0588 -2.54565 -3.1102 -78.1047 35.4395 1.35899 -0.166426 9.6179 5.30496 1.23204 12.9389 5.36789 2.95173 
-260.137 91.5622 -243.889 70.4817 -51.9968 76.8532 -168.344 45.7853 87.5946 -36.3637 14.9812 -4.8131 53.8765 -3.88358 -1.91525 45.1092 15.2617 17.3592 179.33 5.78295 91.1645 -60.6432 -4.97888 -6.22443 48.9813 1.52757 1.34958 -16.2875 2.43721 -10.1377 1.57035 7.4713 -89.7189 11.9321 3.25497 0.208021 0.26524 3.26095 0.064403 -22.2994 3.04182 1.17756 -2.28672 3.04182 1.17755 95.623 -43.7933 -93.0157 27.5004 -19.0284 8.97711 -23.3792 -4.99236 -102.521 -2.43471 -0.407693 1.20426 -97.6858 -48.8194 66.9667 -36.4019 6.53695 43.9693 1.20411 -2.41866 -80.3527 34.3219 2.19944 2.53505 7.49404 5.33285 1.65956 13.2114 5.18628 1.77703 
-253.845 90.7719 -236.334 76.8589 -50.5396 80.5615 -167.367 38.3737 85.1611 -41.6641 17.0193 -5.43892 59.3369 1.57316 6.74255 37.4833 6.96753 5.65442 178.326 8.62973 90.1105 -72.5374 1.9982 -4.28366 55.2264 -1.5131 -0.986639 -16.3704 -0.882676 -3.18051 1.10793 7.74684 -89.4065 11.3709 2.48148 0.932826 -0.297975 2.52014 0.82265 -22.8448 2.0864 1.63569 -2.83218 2.08641 1.63569 94.4108 -47.7592 -94.3801 27.359 -22.7522 12.5488 -14.0052 -7.34205 -86.3555 -13.1231 -0.102001 -4.64416 -97.4003 -50.3681 67.9058 -31.4513 5.40118 39.1865 2.94002 -2.22476 -82.2026 34.4292 2.05423 2.07099 4.12381 5.56534 -0.681373 16.3178 5.85554 1.72319 
-247.442 89.4387 -229.201 78.98 -50.0059 80.7521 -167.33 32.4469 83.6111 -47.6183 11.9079 -5.05503 67.7697 9.73732 7.80316 37.0598 6.50192 -0.201651 178.042 18.975 88.4108 -85.0882 6.47101 -3.06928 52.0997 -1.85241 -1.21179 10.024 -1.50655 1.72704 0.781828 7.77631 -89.0979 11.3053 1.97608 1.59976 -0.364976 2.04457 1.51122 -22.8991 1.40404 2.11959 -2.88644 1.40406 2.11959 94.503 -50.5182 -93.8126 27.5492 -22.2976 16.0225 -11.4453 -12.311 -74.2646 -15.4683 -0.218326 -3.67559 -98.8758 -52.5414 66.5074 -25.472 4.74493 33.3429 3.31665 -1.96552 -84.627 36.4156 2.65042 3.39658 1.48663 5.86824 -3.33189 18.0335 6.74718 2.89695 
-241.495 88.4693 -222.187 79.3622 -48.7237 79.4036 -168.646 26.5349 82.2305 -49.3065 13.3141 -4.14452 69.1664 12.9344 12.3026 44.1125 12.1947 1.76287 178.092 32.4583 88.0832 -93.0941 9.74413 -2.47601 50.6913 -2.37886 -1.54729 34.1438 0.304539 -0.700543 0.296939 7.84528 -88.8354 11.1663 1.13217 2.20694 -0.505878 1.22818 2.15499 -23.0269 0.416778 2.44502 -3.01429 0.416779 2.44502 94.2202 -52.3838 -93.9679 26.6095 -19.6237 18.6275 -13.4699 -19.1148 -67.0251 -20.2691 -0.641932 -1.08998 -100.506 -53.5024 64.5472 -20.4534 4.01601 24.9772 4.13423 -1.5273 -86.1964 38.9452 2.87264 3.48994 5.60517 5.62205 -4.59993 13.4522 6.73524 3.20881 
-235.069 88.4825 -215.183 79.7574 -44.5815 80.3191 -171.687 19.7179 83.0982 -47.5353 14.9295 -2.19772 68.9608 13.9416 13.4447 48.3841 16.0171 4.02764 174.515 43.036 89.9908 -90.9566 9.10039 -1.52566 56.1787 -2.96912 -1.86115 36.8016 0.397687 -7.06395 -0.351257 7.7578 -88.9429 11.3565 -0.205923 2.12713 -0.316172 -0.112103 2.13411 -22.8389 -0.835556 1.96702 -2.82623 -0.835553 1.96701 94.3304 -54.8199 -93.4572 24.7498 -19.4246 24.8634 -10.6408 -21.5525 -62.9116 -24.5743 -0.616942 -1.46186 -101.118 -51.0804 62.8006 -18.8552 2.94523 18.2446 5.37288 -1.66583 -89.4508 39.9377 2.68085 2.78375 4.9465 5.07728 -5.1022 11.9913 6.23371 3.33164 
-227.863 89.4972 -207.95 82.5153 -42.9534 83.0803 -173.396 10.6102 85.4042 -44.438 18.2423 -0.517901 64.3808 8.54029 9.55094 53.9768 20.6663 4.13981 173.279 47.0123 90.5067 -78.7009 7.03238 -0.718507 59.6687 -2.33479 -1.37679 41.0434 0.181514 -10.0689 -0.905369 7.72102 -89.1811 11.4407 -1.41888 1.77505 -0.23075 -1.33942 1.83575 -22.7665 -1.88672 1.2666 -2.75387 -1.88673 1.26658 93.9917 -54.2487 -94.0339 25.4576 -20.8766 33.7261 -10.901 -21.2382 -65.0007 -22.9008 -0.149994 -3.64944 -97.9667 -49.6051 66.8235 -19.6796 3.39035 14.3388 6.06917 -2.65181 -95.964 38.5965 2.37894 2.23395 0.974328 5.55699 -3.48326 12.6572 6.37934 3.33864 
-220.029 90.8869 -200.041 83.3379 -45.3667 84.7679 -173.489 2.98527 88.4507 -40.3037 20.3875 0.523282 54.8733 -1.19247 -0.592511 53.3417 22.0373 11.3344 173.533 46.2531 92.1857 -57.3191 5.82978 0.492562 59.8082 -0.954509 -0.450863 40.8197 0.204888 -9.5948 -1.03844 7.54826 -89.4669 11.7886 -1.81468 1.25472 0.118282 -1.75771 1.33337 -22.4254 -2.10784 0.65118 -2.41269 -2.10787 0.65117 92.8334 -51.5003 -96.2026 28.1182 -21.3628 41.7999 -11.867 -19.5666 -67.2921 -23.0572 0.242347 -5.56632 -96.385 -49.4182 69.0854 -19.41 3.12032 14.1787 9.91691 -5.06561 -104.488 32.3724 1.57623 0.979355 -3.07691 6.37979 -1.20073 13.3357 6.96365 3.65367 
-212.502 92.0056 -191.182 85.5831 -45.3782 87.0092 -174.14 -3.08237 90.4952 -38.234 25.3259 2.24475 41.4559 -10.7728 -7.58829 41.7109 11.2407 12.0177 173.924 39.6033 92.7511 -29.7981 3.60442 1.71516 51.2016 2.13354 1.93945 35.7776 0.371974 -7.72185 -1.3069 7.5 -89.6212 11.8858 -2.42048 1.01469 0.216653 -2.37348 1.12027 -22.3362 -2.61345 0.239887 -2.32358 -2.61346 0.239879 93.051 -51.2822 -95.9212 28.0587 -21.9276 46.0644 -11.78 -17.1476 -68.6764 -19.8414 0.385749 -6.81078 -95.7549 -49.1277 69.9251 -19.4835 4.97615 15.9032 14.0517 -8.94475 -112.165 31.0777 1.42913 0.69124 -6.07087 6.22241 -2.29296 13.2767 7.103 5.37027 
-205.218 92.2366 -182.317 86.7873 -45.4741 85.8443 -175.605 -2.56612 88.7831 -46.3713 24.5997 2.64143 41.5079 -10.7796 -6.76152 32.713 2.38484 14.3989 174.675 36.1732 91.6933 -14.4107 0.594006 1.51207 44.2893 4.27471 4.0809 32.8224 0.393291 -6.61836 -1.40558 7.40464 -89.4313 12.0818 -2.52566 1.41189 0.412416 -2.46108 1.5217 -22.141 -2.83315 0.587079 -2.12829 -2.83315 0.587067 95.3473 -52.4716 -92.2602 26.0403 -22.1227 45.6481 -9.61218 -14.3809 -69.8062 -20.7259 0.274151 -6.26051 -95.3495 -48.3943 70.3022 -20.9868 8.32619 17.6389 16.1139 -11.5532 -115.201 29.8328 1.27596 0.367078 -8.09835 5.41791 -3.9727 13.6573 6.54759 6.39435 
-198.166 92.1471 -174.338 88.4551 -43.7428 86.0796 -176.483 3.17538 89.0727 -59.0296 17.1325 2.91056 43.9147 -8.2475 -6.00986 34.1572 3.81059 15.3264 174.108 35.0448 91.3482 -16.7233 3.81688 1.77469 42.4474 5.22586 5.09183 29.0216 0.463551 -7.25193 -1.45125 7.4261 -89.4749 12.0389 -2.63733 1.33575 0.369781 -2.576 1.45057 -22.1857 -2.91677 0.480815 -2.17311 -2.91678 0.4808 96.1032 -52.5133 -91.1209 25.277 -19.7162 43.3697 -12.6361 -12.7189 -72.1797 -22.4055 0.55427 -7.36566 -96.8276 -48.5848 68.1598 -22.0792 11.8071 18.0288 14.2989 -10.8781 -112.316 27.8067 1.32914 0.891904 -9.36513 3.84076 -2.30591 14.0756 4.71232 5.14605 
